<svg width="125" height="51" viewBox="0 0 125 51" fill="none" xmlns="http://www.w3.org/2000/svg">
<path fill-rule="evenodd" clip-rule="evenodd" d="M41.008 1.6C39.856 0.533334 38.384 0 36.592 0C34.928 0 33.4773 0.533334 32.24 1.6C31.0027 2.66667 30.384 4.13867 30.384 6.016C30.384 8.02134 30.9813 9.536 32.176 10.56C33.4133 11.584 34.8853 12.096 36.592 12.096C38.384 12.096 39.856 11.584 41.008 10.56C42.2027 9.49334 42.8 7.97867 42.8 6.016C42.8 4.13867 42.2027 2.66667 41.008 1.6ZM32.384 49.536H41.648V24.8319H45.856V49.5359H55.968V24.8319H63.968V24.832H68.96V38.272C68.96 42.496 70.0267 45.4614 72.16 47.168C74.336 48.832 77.6853 49.6214 82.208 49.536H85.856V40.576H82.656C81.248 40.576 80.288 40.2347 79.776 39.552C79.264 38.8267 79.008 37.9094 79.008 36.8V24.832H86.304V15.808H79.008V7.04004H68.96V15.808H63.968V15.8079H55.968V13.3759C55.968 11.1999 57.0773 10.1119 59.296 10.1119H63.968V1.15186H57.888C53.792 1.15186 50.7627 2.02652 48.8 3.77586C46.8373 5.52519 45.856 8.36252 45.856 12.2879V15.8079H40.8V15.808H31.6V40.1281H10.432V4.22412H0V49.5361H32.384V49.536Z" fill="#634BFB"/>
<path d="M104.712 50.824C101.256 50.824 98.2693 50.3547 95.752 49.416C93.2773 48.4347 91.2293 47.0267 89.608 45.192C88.0293 43.3573 86.856 41.1173 86.088 38.472C85.3627 35.8267 85 32.7973 85 29.384V5H95.432V30.152C95.432 31.6027 95.5813 33.0107 95.88 34.376C96.1787 35.6987 96.6907 36.872 97.416 37.896C98.1413 38.92 99.1014 39.752 100.296 40.392C101.533 40.9893 103.048 41.288 104.84 41.288C106.675 41.288 108.189 40.968 109.384 40.328C110.579 39.688 111.517 38.856 112.2 37.832C112.925 36.808 113.416 35.6347 113.672 34.312C113.928 32.9467 114.056 31.56 114.056 30.152V5H124.488V29.384C124.488 32.7547 124.104 35.784 123.336 38.472C122.611 41.1173 121.437 43.3573 119.816 45.192C118.237 47.0267 116.189 48.4347 113.672 49.416C111.197 50.3547 108.211 50.824 104.712 50.824Z" fill="white"/>
</svg>
