<svg width="569" height="569" viewBox="0 0 569 569" fill="none" xmlns="http://www.w3.org/2000/svg">
<path opacity="0.6" d="M280.5 565C435.416 565 561 439.416 561 284.5C561 129.584 435.416 4 280.5 4C125.584 4 0 129.584 0 284.5C0 439.416 125.584 565 280.5 565Z" fill="white"/>
<path opacity="0.6" d="M284.5 569C228.231 569 173.226 552.314 126.441 521.053C79.6549 489.792 43.1898 445.359 21.6566 393.374C0.123431 341.388 -5.51078 284.185 5.46656 228.998C16.4439 173.81 43.5396 123.117 83.3275 83.3289C123.115 43.5408 173.808 16.4447 228.996 5.46696C284.183 -5.51075 341.386 0.122974 393.372 21.6558C445.358 43.1886 489.791 79.6535 521.052 126.439C552.314 173.225 569 228.23 569 284.498C568.915 359.926 538.914 432.241 485.578 485.577C432.242 538.913 359.928 568.915 284.5 569ZM284.5 7.82849C229.779 7.82849 176.288 24.055 130.789 54.4561C85.2909 84.8573 49.8292 128.068 28.8886 178.623C7.94804 229.178 2.46912 284.808 13.1447 338.477C23.8203 392.146 50.1708 441.444 88.8642 480.137C127.558 518.83 176.856 545.181 230.525 555.856C284.194 566.531 339.824 561.052 390.379 540.111C440.934 519.17 484.144 483.708 514.545 438.209C544.946 392.711 561.172 339.219 561.172 284.498C561.089 211.146 531.913 140.822 480.045 88.9542C428.177 37.0865 357.852 7.91104 284.5 7.82849Z" fill="#3F3D56"/>
<path opacity="0.6" d="M246.363 430C241.535 430 236.774 428.876 232.456 426.716C228.138 424.557 224.383 421.421 221.487 417.559L145.219 315.866C142.769 312.599 140.986 308.882 139.973 304.926C138.959 300.97 138.735 296.853 139.313 292.811C139.89 288.768 141.258 284.879 143.339 281.365C145.42 277.851 148.173 274.782 151.44 272.332C154.707 269.881 158.424 268.099 162.38 267.086C166.336 266.072 170.453 265.848 174.495 266.426C178.538 267.003 182.427 268.372 185.941 270.452C189.455 272.533 192.524 275.285 194.974 278.552L244.872 345.077L373.027 152.848C375.292 149.45 378.205 146.531 381.598 144.259C384.991 141.987 388.799 140.405 392.803 139.604C396.808 138.803 400.931 138.799 404.937 139.591C408.943 140.384 412.754 141.958 416.152 144.223C419.55 146.488 422.469 149.401 424.741 152.794C427.013 156.187 428.595 159.994 429.396 163.999C430.197 168.003 430.201 172.126 429.409 176.133C428.616 180.139 427.043 183.95 424.777 187.348L272.24 416.152C269.481 420.29 265.77 423.706 261.418 426.114C257.066 428.521 252.2 429.851 247.228 429.99C246.939 429.995 246.651 430 246.363 430Z" fill="#6C63FF"/>
<path d="M393.742 385.763C394.132 386.806 394.078 387.953 393.591 388.958C393.103 389.963 392.222 390.745 391.136 391.135C390.896 391.22 390.648 391.286 390.396 391.33L387.887 406L382 400.811L385.286 387.675C385.164 386.568 385.503 385.46 386.231 384.59C386.958 383.72 388.015 383.159 389.172 383.027C390.146 382.92 391.129 383.133 391.959 383.63C392.79 384.127 393.418 384.879 393.742 385.763Z" fill="#9E616A"/>
<path d="M353 418.702C353 418.702 357.315 412.936 372.973 413.094L381.86 409.829L383.891 391L391 392.712L389.984 415.991L374.751 424.892L354.779 429L353 418.702Z" fill="#6C63FF"/>
<path d="M328 560.209L332.167 562L341 546.643L334.85 544L328 560.209Z" fill="#9E616A"/>
<path d="M362.001 564L366.744 564L369 547L362 547L362.001 564Z" fill="#9E616A"/>
<path d="M362 569L376 568.999V568.812C376 567.284 375.426 565.819 374.404 564.739C373.382 563.658 371.996 563.051 370.551 563.051L367.993 561L363.222 563.051L362 563.051L362 569Z" fill="#2F2E41"/>
<path d="M326 563.339L338.509 569L338.576 568.832C339.127 567.461 339.141 565.913 338.617 564.53C338.094 563.148 337.074 562.042 335.783 561.458L334.236 558.583L329.234 558.494L328.142 558L326 563.339Z" fill="#2F2E41"/>
<path d="M366.593 461.86L373.42 503.324L371.562 509.503L374 513.879L370.42 552.311L371.873 555.502L367.813 558H359.551L359.112 523.208L357.071 518.099V515.284L352.917 494.069L352.152 518.336L350.943 523.453L351.958 527.096L350.632 529.648L339.265 553.995H330L330.717 548.489C329.057 547.651 333.209 545.201 333.608 543.388L332.243 540.326L333.608 534.543L334.858 523.243L333.539 499.389L334.16 467.267L344.998 459L366.593 461.86Z" fill="#2F2E41"/>
<path d="M350 407C354.971 407 359 402.747 359 397.5C359 392.253 354.971 388 350 388C345.029 388 341 392.253 341 397.5C341 402.747 345.029 407 350 407Z" fill="#9E616A"/>
<path d="M333.543 479.107C333.8 478.643 333.953 478.129 333.991 477.599C334.029 477.07 333.951 476.538 333.763 476.042C333.575 475.546 333.281 475.098 332.903 474.729C332.524 474.359 332.07 474.078 331.572 473.905L331.55 461L326 464.701L326.871 476.389C326.638 477.251 326.727 478.17 327.121 478.97C327.515 479.771 328.187 480.399 329.009 480.734C329.832 481.069 330.747 481.088 331.583 480.788C332.419 480.489 333.116 479.89 333.543 479.107Z" fill="#9E616A"/>
<path d="M333.414 421.443L330.859 419L328.981 420.344C328.981 420.344 327.134 422.542 325.657 429.136C324.179 435.731 325.657 472 325.657 472L333.784 470.901L332.675 451.85L336 435.731L333.414 421.443Z" fill="#6C63FF"/>
<path d="M329 419.408L337.665 415.384L343.548 410.078L354.275 410L357.736 414.374L366.871 417.392L365.349 448.023L366.387 450.378C366.387 450.378 365.664 451.014 365.333 451.369C365.003 451.724 365.79 454.699 365.79 454.699L366.233 457.935L365.003 458.79L366.603 460.628L367 463.525C367 463.525 339.069 456.775 333.791 467.958C333.512 468.548 334.199 462.774 334.199 462.774L334.886 458.547L334.204 454.753L333.166 453.743L334.907 452.05L333.791 444.017L329 419.408Z" fill="#6C63FF"/>
<path d="M419 560H413.579L411 540H419V560Z" fill="#FFB6B6"/>
<path d="M421 569H417.519L416.898 565.497L415.307 569H406.075C405.633 569 405.202 568.849 404.845 568.57C404.489 568.29 404.226 567.897 404.094 567.446C403.962 566.996 403.969 566.513 404.113 566.067C404.258 565.621 404.532 565.236 404.896 564.968L412.268 559.541V556L420.022 556.493L421 569Z" fill="#2F2E41"/>
<path d="M468 549.468L463.748 552L452 536.737L458.275 533L468 549.468Z" fill="#FFB6B6"/>
<path d="M475 555.869L471.813 557.696L469.46 555.114L469.788 558.857L461.336 563.701C460.931 563.934 460.459 564.035 459.991 563.99C459.522 563.945 459.08 563.756 458.73 563.451C458.38 563.147 458.14 562.742 458.045 562.296C457.95 561.85 458.005 561.386 458.202 560.973L462.187 552.599L460.383 549.66L467.734 546L475 555.869Z" fill="#2F2E41"/>
<path d="M416.526 435L414 450.693L438 451L434.842 435.923L416.526 435Z" fill="#FFB6B6"/>
<path d="M414.129 450.323L407.484 466.65L407 510.312L412.67 552H418.946L421.517 510.991L427.841 482.932L434.078 512.279L453.471 541.005H463L445.48 509.35L443.453 474.868C443.453 474.868 444.716 460.24 438.249 451.608L436.674 447L414.129 450.323Z" fill="#2F2E41"/>
<path d="M446.359 461.831C445.736 461.655 445.157 461.341 444.664 460.91C444.171 460.479 443.775 459.942 443.505 459.336C443.235 458.73 443.097 458.071 443.101 457.404C443.105 456.737 443.25 456.08 443.527 455.477L434 423.433L441.007 422L449.721 453.41C450.671 453.957 451.394 454.844 451.752 455.904C452.11 456.964 452.079 458.123 451.665 459.161C451.251 460.199 450.482 461.044 449.504 461.536C448.526 462.028 447.407 462.133 446.359 461.831Z" fill="#FFB6B6"/>
<path d="M434.419 447L417.022 438.915C416.564 438.905 416.121 438.746 415.762 438.462C415.403 438.177 415.147 437.784 415.034 437.341C414.174 433.947 412.283 430.176 413.286 421.368C413.484 419.662 414.024 418.013 414.872 416.518C415.721 415.023 416.862 413.713 418.228 412.666C419.594 411.618 421.156 410.854 422.823 410.419C424.491 409.984 426.228 409.886 427.934 410.132C429.733 410.389 431.458 411.022 432.994 411.99C434.531 412.957 435.845 414.238 436.85 415.747C437.855 417.257 438.528 418.961 438.826 420.748C439.124 422.535 439.039 424.364 438.577 426.116C436.558 433.758 436.775 441.93 436.544 445.071C436.51 445.525 436.328 445.955 436.025 446.297C435.723 446.638 435.316 446.871 434.868 446.96C434.735 446.987 434.599 447 434.464 447C434.449 447 434.434 447 434.419 447Z" fill="#6C63FF"/>
<path d="M396.696 392.314C396.598 392.531 396.483 392.739 396.352 392.938L404.766 412.505L409.937 413.135L410 421L400.736 420.769C399.987 420.75 399.265 420.491 398.678 420.03C398.09 419.57 397.669 418.933 397.478 418.215L391.242 394.817C390.359 394.556 389.576 394.034 388.999 393.321C388.422 392.608 388.078 391.738 388.012 390.826C387.946 389.914 388.161 389.003 388.629 388.216C389.097 387.428 389.796 386.8 390.633 386.416C391.47 386.032 392.404 385.91 393.313 386.066C394.221 386.221 395.06 386.648 395.718 387.288C396.376 387.928 396.822 388.752 396.997 389.65C397.172 390.548 397.066 391.477 396.696 392.314Z" fill="#FFB6B6"/>
<path d="M405.643 411.499C405.848 411.31 406.089 411.169 406.351 411.086C406.613 411.003 406.889 410.98 407.161 411.018L416.639 412.355C418.04 412.336 419.391 412.897 420.396 413.914C421.401 414.932 421.977 416.323 421.999 417.783C422.021 419.243 421.487 420.652 420.513 421.702C419.539 422.752 418.206 423.357 416.805 423.383L407.332 424.975C407.061 425.02 406.785 425.004 406.521 424.928C406.257 424.852 406.012 424.718 405.802 424.534C405.592 424.35 405.423 424.122 405.306 423.864C405.189 423.606 405.126 423.325 405.123 423.04L405 413.011C404.997 412.726 405.052 412.443 405.163 412.182C405.274 411.921 405.437 411.688 405.643 411.499Z" fill="#6C63FF"/>
<path d="M432.662 431.768C432.408 431.634 432.185 431.446 432.01 431.218C431.834 430.989 431.71 430.725 431.645 430.444L429.385 420.62C428.847 419.245 428.874 417.712 429.46 416.357C430.045 415.003 431.142 413.936 432.51 413.392C433.877 412.848 435.404 412.871 436.754 413.455C438.105 414.039 439.17 415.138 439.716 416.509L444.734 425.28C444.877 425.531 444.965 425.809 444.992 426.097C445.018 426.384 444.982 426.674 444.887 426.946C444.792 427.219 444.639 427.467 444.44 427.675C444.24 427.883 443.998 428.045 443.731 428.151L434.326 431.861C434.058 431.966 433.771 432.013 433.484 431.997C433.197 431.981 432.917 431.903 432.662 431.768Z" fill="#6C63FF"/>
<path d="M432.838 406.109C437.631 403.489 439.393 397.478 436.773 392.685C434.152 387.891 428.142 386.129 423.348 388.75C418.555 391.37 416.793 397.38 419.413 402.174C422.034 406.968 428.044 408.73 432.838 406.109Z" fill="#FFB6B6"/>
<path d="M421.261 393.873C419.181 393.861 417.101 393.849 415.022 393.837C414.874 392.397 415.504 390.963 416.424 389.856C417.343 388.749 418.533 387.916 419.708 387.096C420.901 386.264 422.137 385.413 423.555 385.122C424.744 384.878 425.972 385.047 427.173 385.217C428.766 385.442 430.358 385.667 431.951 385.892C433.699 386.139 435.528 386.419 436.948 387.485C438.868 388.926 438.377 392.252 440.22 393.795C445.784 398.453 443.531 402.521 443.635 406.767C436.911 407.484 430.187 408.201 423.462 408.918C422.733 409.046 421.985 409.024 421.264 408.853C420.558 408.634 419.91 408.04 419.858 407.291C419.8 406.455 420.453 405.77 420.983 405.128C422.247 403.535 423.006 401.59 423.159 399.55C423.312 397.509 422.852 395.47 421.84 393.701L421.261 393.873Z" fill="#2F2E41"/>
<path d="M339.788 388.649C340.243 388.21 340.834 387.948 341.458 387.91C342.078 387.93 342.706 388.503 342.578 389.124C343.716 387.061 345.527 385.474 347.694 384.642C349.861 383.81 352.245 383.786 354.427 384.574C355.967 385.131 357.477 386.244 357.831 387.876C357.865 388.305 357.99 388.72 358.197 389.095C358.376 389.295 358.608 389.437 358.865 389.504C359.122 389.57 359.392 389.559 359.643 389.47L359.658 389.465C359.744 389.435 359.836 389.432 359.924 389.457C360.011 389.481 360.089 389.532 360.148 389.602C360.207 389.673 360.244 389.76 360.254 389.852C360.264 389.944 360.247 390.037 360.205 390.12L359.769 390.952C360.319 391.077 360.889 391.065 361.433 390.915C361.523 390.891 361.619 390.896 361.706 390.93C361.794 390.963 361.869 391.023 361.921 391.102C361.974 391.181 362.001 391.275 362 391.371C361.999 391.466 361.968 391.559 361.913 391.636C361.189 392.651 360.244 393.478 359.152 394.052C358.061 394.627 356.854 394.932 355.627 394.945C353.886 394.934 352.127 394.32 350.433 394.73C349.777 394.888 349.165 395.195 348.64 395.628C348.116 396.06 347.692 396.607 347.401 397.229C347.11 397.851 346.959 398.532 346.958 399.222C346.958 399.911 347.108 400.592 347.398 401.215C346.878 400.632 345.871 400.77 345.339 401.341C345.094 401.647 344.913 402.002 344.806 402.382C344.7 402.763 344.672 403.162 344.722 403.554C344.864 404.756 345.213 405.922 345.752 407C343.693 406.935 341.703 406.225 340.051 404.965C338.4 403.705 337.165 401.957 336.515 399.956C335.864 397.955 335.829 395.798 336.415 393.775C337 391.753 338.177 389.964 339.788 388.649Z" fill="#2F2E41"/>
</svg>
