<svg width="94" height="23" viewBox="0 0 189 47" fill="none" xmlns="http://www.w3.org/2000/svg">
  <path
    d="M141.024 37.56C142.347 37.56 143.456 37.3467 144.352 36.92C145.248 36.4507 145.909 35.8107 146.336 35H156.576C156.107 36.9627 155.381 38.6267 154.4 39.992C153.419 41.3573 152.224 42.488 150.816 43.384C149.408 44.28 147.851 44.9413 146.144 45.368C144.48 45.752 142.731 45.944 140.896 45.944C135.563 45.944 131.403 44.4293 128.416 41.4C125.472 38.328 124 33.9973 124 28.408C124 25.9333 124.384 23.6293 125.152 21.496C125.963 19.3627 127.072 17.528 128.48 15.992C129.931 14.4133 131.68 13.1973 133.728 12.344C135.819 11.448 138.165 11 140.768 11C143.371 11 145.675 11.4053 147.68 12.216C149.685 13.0267 151.371 14.1787 152.736 15.672C154.101 17.1653 155.125 18.936 155.808 20.984C156.533 23.032 156.896 25.2507 156.896 27.64C156.896 28.3227 156.853 28.984 156.768 29.624C156.725 30.2213 156.64 30.8827 156.512 31.608H134.112C134.283 33.2293 134.901 34.616 135.968 35.768C137.077 36.92 138.763 37.5173 141.024 37.56ZM147.232 24.824C147.232 23.2453 146.656 21.944 145.504 20.92C144.395 19.896 142.859 19.384 140.896 19.384C138.72 19.384 137.099 19.9387 136.032 21.048C134.965 22.1147 134.368 23.3733 134.24 24.824H147.232Z"
    fill="#634BFB" />
  <path
    d="M173.024 37.56C174.347 37.56 175.456 37.3467 176.352 36.92C177.248 36.4507 177.909 35.8107 178.336 35H188.576C188.107 36.9627 187.381 38.6267 186.4 39.992C185.419 41.3573 184.224 42.488 182.816 43.384C181.408 44.28 179.851 44.9413 178.144 45.368C176.48 45.752 174.731 45.944 172.896 45.944C167.563 45.944 163.403 44.4293 160.416 41.4C157.472 38.328 156 33.9973 156 28.408C156 25.9333 156.384 23.6293 157.152 21.496C157.963 19.3627 159.072 17.528 160.48 15.992C161.931 14.4133 163.68 13.1973 165.728 12.344C167.819 11.448 170.165 11 172.768 11C175.371 11 177.675 11.4053 179.68 12.216C181.685 13.0267 183.371 14.1787 184.736 15.672C186.101 17.1653 187.125 18.936 187.808 20.984C188.533 23.032 188.896 25.2507 188.896 27.64C188.896 28.3227 188.853 28.984 188.768 29.624C188.725 30.2213 188.64 30.8827 188.512 31.608H166.112C166.283 33.2293 166.901 34.616 167.968 35.768C169.077 36.92 170.763 37.5173 173.024 37.56ZM179.232 24.824C179.232 23.2453 178.656 21.944 177.504 20.92C176.395 19.896 174.859 19.384 172.896 19.384C170.72 19.384 169.099 19.9387 168.032 21.048C166.965 22.1147 166.368 23.3733 166.24 24.824H179.232Z"
    fill="#634BFB" />
  <path
    d="M77.664 16.352C78.9867 14.6027 80.4373 13.4507 82.016 12.896C83.6373 12.2987 85.3653 12 87.2 12C87.7547 12 88.288 12.0213 88.8 12.064C89.3547 12.064 89.7813 12.1067 90.08 12.192V21.856C89.4827 21.856 88.8 21.856 88.032 21.856C87.264 21.8133 86.4747 21.8347 85.664 21.92C84.896 21.9627 84.128 22.0693 83.36 22.24C82.6347 22.368 81.9947 22.6027 81.44 22.944C80.16 23.7547 79.264 24.8427 78.752 26.208C78.2827 27.5307 78.048 29.1733 78.048 31.136V46.368H68V12.64H77.024L77.664 16.352Z"
    fill="black" />
  <path
    d="M52.216 45.944C49.656 45.944 47.3093 45.56 45.176 44.792C43.0853 44.024 41.2933 42.8933 39.8 41.4C38.3067 39.9067 37.1333 38.072 36.28 35.896C35.4267 33.72 35 31.224 35 28.408C35 25.72 35.448 23.3093 36.344 21.176C37.24 19 38.456 17.1653 39.992 15.672C41.528 14.136 43.3627 12.984 45.496 12.216C47.6293 11.4053 49.976 11 52.536 11C55.096 11 57.4213 11.4053 59.512 12.216C61.6027 12.984 63.3733 14.136 64.824 15.672C66.3173 17.1653 67.4693 19 68.28 21.176C69.1333 23.3093 69.56 25.72 69.56 28.408C69.56 31.224 69.1333 33.72 68.28 35.896C67.4267 38.072 66.2533 39.9067 64.76 41.4C63.2667 42.8933 61.4533 44.024 59.32 44.792C57.1867 45.56 54.8187 45.944 52.216 45.944ZM52.28 20.344C51 20.344 49.8907 20.5787 48.952 21.048C48.056 21.4747 47.3093 22.0933 46.712 22.904C46.1147 23.672 45.6667 24.5467 45.368 25.528C45.112 26.4667 44.984 27.448 44.984 28.472C44.984 29.624 45.112 30.6907 45.368 31.672C45.6667 32.6533 46.1147 33.528 46.712 34.296C47.3093 35.0213 48.056 35.6187 48.952 36.088C49.8907 36.5147 51 36.728 52.28 36.728C53.56 36.728 54.648 36.4933 55.544 36.024C56.4827 35.5547 57.2293 34.9573 57.784 34.232C58.3813 33.5067 58.808 32.6533 59.064 31.672C59.32 30.6907 59.448 29.624 59.448 28.472C59.448 27.448 59.32 26.4667 59.064 25.528C58.808 24.5467 58.3813 23.672 57.784 22.904C57.2293 22.0933 56.4827 21.4747 55.544 21.048C54.648 20.5787 53.56 20.344 52.28 20.344Z"
    fill="black" />
  <path d="M34.432 1H45.76L28.096 46.312H17.6L0 1H11.456L23.104 33.256L34.432 1Z" fill="black" />
  <path
    d="M100.048 15.424C101.413 13.9307 103.035 12.8 104.912 12.032C106.789 11.264 108.773 10.88 110.864 10.88C113.125 10.88 115.152 11.3067 116.944 12.16C118.779 12.9707 120.315 14.144 121.552 15.68C122.832 17.1733 123.792 18.9867 124.432 21.12C125.072 23.2107 125.392 25.5573 125.392 28.16C125.392 30.8053 125.072 33.216 124.432 35.392C123.835 37.5253 122.896 39.3813 121.616 40.96C120.379 42.496 118.843 43.6907 117.008 44.544C115.173 45.3973 113.083 45.824 110.736 45.824C108.389 45.824 106.363 45.4613 104.656 44.736C102.949 43.968 101.392 42.8373 99.984 41.344L100.048 45.312H90V0H100.048V15.424ZM107.728 20.096C106.491 20.096 105.403 20.3307 104.464 20.8C103.525 21.2267 102.715 21.824 102.032 22.592C101.392 23.36 100.901 24.2347 100.56 25.216C100.219 26.1547 100.048 27.1573 100.048 28.224C100.048 30.5707 100.709 32.5547 102.032 34.176C103.355 35.7973 105.317 36.6507 107.92 36.736C109.285 36.736 110.437 36.5013 111.376 36.032C112.315 35.5627 113.061 34.944 113.616 34.176C114.213 33.408 114.64 32.5333 114.896 31.552C115.152 30.528 115.28 29.44 115.28 28.288C115.28 27.264 115.131 26.2613 114.832 25.28C114.533 24.2987 114.085 23.424 113.488 22.656C112.891 21.8453 112.123 21.2267 111.184 20.8C110.245 20.3307 109.093 20.096 107.728 20.096Z"
    fill="#634BFB" />
</svg>