<svg width="861" height="266" viewBox="0 0 861 266" fill="none" xmlns="http://www.w3.org/2000/svg">
<g clip-path="url(#clip0_103_8)">
<path d="M262.989 113.84C262.643 112.827 262.06 111.912 261.289 111.17C261.004 110.906 260.696 110.668 260.369 110.46C257.759 108.72 253.859 108.33 251.379 110.46C251.129 110.677 250.898 110.914 250.689 111.17C249.949 112.08 249.189 112.97 248.409 113.84C247.129 115.3 245.819 116.71 244.449 118.08C244.059 118.46 243.669 118.85 243.269 119.23C243.039 119.46 242.809 119.68 242.579 119.9C241.699 120.74 240.799 121.55 239.889 122.35C239.409 122.78 238.929 123.2 238.439 123.61C237.709 124.22 236.979 124.83 236.239 125.42C236.169 125.47 236.099 125.52 236.029 125.58C236.009 125.59 235.999 125.61 235.979 125.62C235.969 125.62 235.959 125.62 235.949 125.64C235.922 125.651 235.898 125.668 235.879 125.69C235.659 125.84 235.509 125.94 235.399 126.03C235.439 126.01 235.479 125.98 235.519 125.96C235.339 126.1 235.149 126.24 234.969 126.38C233.219 127.67 231.429 128.91 229.599 130.07C225.071 132.968 220.316 135.493 215.379 137.62C215.049 137.75 214.709 137.89 214.369 138.02C201.443 143.315 187.422 145.382 173.519 144.04C172.099 143.93 170.679 143.78 169.259 143.59C167.619 143.35 165.989 143.06 164.369 142.73C158.201 141.499 152.167 139.678 146.349 137.29C139.071 133.957 132.149 129.897 125.689 125.17C124.689 124.46 123.679 123.75 122.669 123.06C123.819 120.24 124.949 117.42 126.049 114.58C126.599 113.21 127.129 111.84 127.649 110.46C131.739 99.83 135.579 89.1 139.259 78.33C142.979 67.42 146.489 56.4467 149.789 45.41C150.129 44.29 150.459 43.17 150.779 42.05C152.509 36.22 154.169 30.3767 155.759 24.52C155.909 23.9501 156.069 23.3901 156.209 22.82C156.669 21.14 157.119 19.46 157.559 17.78C158.559 13.99 156.299 9.46002 152.319 8.55002C150.403 8.0587 148.37 8.33037 146.651 9.30784C144.931 10.2853 143.657 11.8922 143.099 13.79C142.669 15.41 142.239 17.02 141.799 18.64C139.689 26.47 137.469 34.2733 135.139 42.05C134.799 43.17 134.459 44.29 134.119 45.41C128.979 62.35 123.335 79.12 117.189 95.72C116.449 97.73 115.699 99.7334 114.939 101.73C114.569 102.71 114.199 103.69 113.819 104.67C113.089 106.6 112.339 108.53 111.589 110.46C111.159 111.59 110.719 112.72 110.279 113.84C109.989 114.55 109.709 115.26 109.429 115.96C106.578 114.936 103.624 114.225 100.619 113.84L100.139 113.78C97.8092 113.5 95.4533 113.52 93.1288 113.84C89.6499 114.246 86.3026 115.411 83.3235 117.253C80.3445 119.095 77.8065 121.569 75.8888 124.5C71.1188 132.01 71.1788 142.75 77.8688 149.13C84.7588 155.7 95.1888 155.65 103.299 151.54C107.597 149.215 111.22 145.818 113.819 141.68C114.814 140.18 115.729 138.628 116.559 137.03C116.769 137.17 116.979 137.31 117.189 137.46C117.989 138.02 118.789 138.59 119.579 139.15C124.182 142.485 129.033 145.463 134.089 148.06C144.961 153.465 156.664 157.004 168.709 158.53C168.979 158.56 169.239 158.6 169.509 158.63C170.839 158.8 172.179 158.93 173.519 159.04C192.741 160.489 211.987 156.555 229.099 147.68C230.549 146.93 231.985 146.143 233.409 145.32C235.619 144.04 237.779 142.68 239.889 141.24C241.039 140.46 242.159 139.67 243.269 138.84C248.119 135.267 252.641 131.268 256.779 126.89C258.349 125.24 259.852 123.537 261.289 121.78C262.647 120.343 263.43 118.457 263.489 116.48C263.481 115.577 263.312 114.683 262.989 113.84ZM97.3988 137.66C97.6088 137.51 97.8188 137.35 98.0188 137.19C97.9589 137.34 97.6688 137.51 97.3988 137.66ZM100.609 134.43C100.379 134.69 100.169 134.95 99.9388 135.21C99.2391 135.993 98.4874 136.728 97.6888 137.41C97.5788 137.51 97.4588 137.61 97.3388 137.7C97.3375 137.7 97.3362 137.7 97.335 137.701C97.3337 137.701 97.3326 137.702 97.3317 137.703C97.3308 137.704 97.33 137.705 97.3295 137.706C97.329 137.707 97.3288 137.709 97.3288 137.71C97.1844 137.775 97.0441 137.848 96.9088 137.93C96.4788 138.19 96.0388 138.43 95.5888 138.65C94.7078 138.974 93.8013 139.225 92.8788 139.4C92.17 139.452 91.4586 139.458 90.7488 139.42H90.7288C90.239 139.311 89.7551 139.178 89.2788 139.02C89.0388 138.9 88.8088 138.76 88.5788 138.62C88.4888 138.54 88.4088 138.46 88.3588 138.41C88.2611 138.321 88.1709 138.224 88.0889 138.12C88.0889 138.119 88.0887 138.117 88.0882 138.116C88.0877 138.115 88.087 138.114 88.086 138.113C88.0851 138.112 88.084 138.111 88.0827 138.111C88.0815 138.11 88.0802 138.11 88.0789 138.11C87.9688 137.91 87.8488 137.71 87.7389 137.51C87.7332 137.505 87.7296 137.498 87.7289 137.49C87.6489 137.24 87.5789 136.98 87.5189 136.72C87.4972 136.263 87.5005 135.806 87.5289 135.35C87.6631 134.711 87.8435 134.083 88.0689 133.47C88.2714 133.036 88.5018 132.615 88.7589 132.21C88.7789 132.17 88.8789 132.01 88.9889 131.83C88.9989 131.82 88.9989 131.82 88.9989 131.81C89.1489 131.64 89.2989 131.46 89.4589 131.3C89.7289 131 90.0189 130.74 90.3089 130.47C90.8729 130.101 91.4571 129.764 92.0589 129.46C93.0135 129.121 93.9932 128.857 94.9889 128.67C96.4572 128.553 97.9329 128.567 99.3989 128.71C100.787 128.951 102.157 129.288 103.499 129.72C102.686 131.298 101.76 132.815 100.729 134.26C100.689 134.32 100.649 134.38 100.609 134.43ZM89.4888 131.14C89.4007 131.281 89.2967 131.412 89.1788 131.53C89.2582 131.383 89.3632 131.251 89.4888 131.14Z" fill="#634BFB"/>
<path d="M232.929 11.71C232.839 14.85 232.749 17.99 232.659 21.13C232.469 28.1 232.272 35.0733 232.069 42.05C231.859 49.9 231.639 57.7466 231.409 65.59C231.299 69.64 231.185 73.69 231.069 77.74C230.759 88.65 230.452 99.5566 230.149 110.46C230.119 111.59 230.079 112.71 230.049 113.84C229.899 119.25 229.749 124.66 229.599 130.07C229.429 135.94 229.262 141.81 229.099 147.68C228.979 152.08 228.855 156.483 228.729 160.89C227.829 192.82 226.929 224.75 226.029 256.68C225.991 258.657 225.188 260.543 223.79 261.941C222.392 263.34 220.506 264.142 218.529 264.18C216.545 264.164 214.646 263.369 213.243 261.966C211.84 260.563 211.045 258.664 211.029 256.68C211.529 238.72 212.035 220.76 212.549 202.8C212.999 186.56 213.455 170.32 213.919 154.08C214.069 148.73 214.219 143.377 214.369 138.02C214.599 129.96 214.825 121.9 215.049 113.84C215.079 112.71 215.119 111.59 215.149 110.46C215.169 109.47 215.199 108.49 215.229 107.5C215.669 91.85 216.109 76.1966 216.549 60.54C216.729 54.38 216.902 48.2167 217.069 42.05C217.269 35.02 217.469 27.9933 217.669 20.97C217.759 17.88 217.839 14.8 217.929 11.71C217.967 9.73274 218.769 7.8471 220.168 6.44873C221.566 5.05036 223.452 4.24798 225.429 4.20996C227.413 4.22595 229.311 5.02127 230.714 6.42435C232.117 7.82742 232.913 9.72578 232.929 11.71Z" fill="#634BFB"/>
<path d="M644.357 13.7912C636.492 43.5709 627.093 72.9238 616.196 101.732C613.189 109.679 610.113 117.609 606.824 125.444L607.58 123.653C606.113 127.385 604.238 130.943 601.991 134.265C601.838 134.479 601.682 134.691 601.524 134.901C602.301 133.907 602.449 133.711 601.967 134.312C601.713 134.613 601.462 134.914 601.199 135.207C600.499 135.991 599.748 136.727 598.95 137.411C598.749 137.582 598.545 137.751 598.338 137.915L599.276 137.186C599.167 137.443 598.404 137.783 598.166 137.929C597.395 138.394 596.591 138.801 595.761 139.147L597.552 138.391C596.191 138.94 594.772 139.329 593.321 139.552L595.315 139.284C593.89 139.481 592.446 139.496 591.017 139.33L593.011 139.598C591.842 139.437 590.698 139.129 589.606 138.681L591.398 139.437C590.815 139.183 590.254 138.884 589.719 138.541C589.447 138.364 588.614 137.732 589.704 138.565C590.837 139.431 589.85 138.64 589.616 138.41C589.422 138.218 589.247 138.01 589.057 137.815C588.174 136.91 590.053 139.371 589.453 138.313C589.133 137.783 588.84 137.237 588.575 136.676L589.331 138.468C588.987 137.615 588.743 136.726 588.603 135.817L588.871 137.81C588.728 136.68 588.727 135.536 588.868 134.406L588.6 136.399C588.784 135.137 589.117 133.902 589.595 132.719L588.839 134.511C589.172 133.715 589.566 132.947 590.017 132.212C590.225 131.833 590.469 131.474 590.745 131.141C590.794 131.157 589.477 132.654 590.176 131.898C590.359 131.7 590.53 131.492 590.715 131.296C591.011 130.982 591.328 130.695 591.641 130.398C592.685 129.404 590.179 131.364 591.384 130.577C592.258 130.003 593.177 129.501 594.133 129.078L592.342 129.834C593.943 129.176 595.622 128.726 597.337 128.494L595.343 128.762C597.491 128.515 599.662 128.541 601.804 128.838L599.81 128.571C602.522 128.982 605.173 129.727 607.702 130.791L605.91 130.034C611.3 132.348 616.073 135.784 620.838 139.152C625.44 142.485 630.29 145.463 635.344 148.059C646.217 153.465 657.921 157.005 669.967 158.533C687.242 160.649 704.772 158.393 720.949 151.971C737.126 145.55 751.431 135.169 762.552 121.781C763.909 120.342 764.691 118.454 764.749 116.477C764.735 114.491 763.947 112.589 762.552 111.174C759.801 108.648 754.603 107.935 751.945 111.174C749.427 114.249 746.72 117.163 743.839 119.901C742.494 121.177 741.113 122.414 739.697 123.611C738.887 124.295 738.067 124.965 737.236 125.622C736.842 125.933 735.617 126.76 737.499 125.425C737.067 125.731 736.654 126.065 736.228 126.379C729.93 131.022 723.106 134.904 715.896 137.944L717.688 137.188C709.951 140.433 701.826 142.659 693.516 143.811L695.51 143.543C686.962 144.667 678.302 144.654 669.757 143.505L671.75 143.773C663.207 142.599 654.852 140.324 646.893 137.002L648.685 137.758C641.005 134.36 633.717 130.139 626.949 125.167C623.426 122.559 619.711 120.221 615.836 118.173C611.321 115.867 606.432 114.381 601.398 113.785C591.959 112.674 582.341 116.35 577.152 124.505C572.376 132.01 572.438 142.749 579.125 149.13C586.013 155.703 596.444 155.647 604.561 151.536C612.378 147.576 617.074 139.35 620.376 131.594C627.807 114.139 634.386 96.2803 640.516 78.3309C646.58 60.5728 652.08 42.6351 657.014 24.5176C657.625 22.2737 658.228 20.0275 658.821 17.7789C659.822 13.9902 657.56 9.45891 653.583 8.55302C651.666 8.05958 649.632 8.33005 647.911 9.30736C646.19 10.2847 644.916 11.8923 644.357 13.7912Z" fill="#634BFB"/>
<path d="M719.189 11.7095L716.49 107.503L713.804 202.797L712.286 256.68C712.303 258.664 713.098 260.562 714.501 261.965C715.904 263.368 717.802 264.164 719.786 264.18C721.763 264.142 723.649 263.34 725.047 261.941C726.445 260.543 727.248 258.658 727.286 256.68L729.985 160.887L732.671 65.5931L734.189 11.7095C734.173 9.72557 733.377 7.82771 731.974 6.42484C730.571 5.02196 728.673 4.22636 726.689 4.20947C724.712 4.24768 722.827 5.05013 721.428 6.44846C720.03 7.84678 719.228 9.73231 719.189 11.7095Z" fill="#634BFB"/>
<path opacity="0.2" d="M459.591 229.935H461.92V123.893H516.249V121.571H461.92V76.8262H503.876C503.261 76.0439 502.628 75.2716 501.977 74.5092H461.92V44.9564C461.15 44.6279 460.374 44.3114 459.591 44.0128V74.5092H413.939V36.644C413.157 36.6799 412.387 36.7336 411.61 36.7993V74.5093H375.19V46.2581C374.408 46.6045 373.638 46.9688 372.873 47.351V74.5092H342.258V76.8262H372.873V121.571H342.258V123.893H372.873V229.935H375.19V123.893C379.973 123.892 384.71 124.834 389.129 126.664C393.548 128.494 397.563 131.176 400.945 134.559C404.327 137.941 407.01 141.956 408.84 146.375C410.67 150.794 411.611 155.531 411.61 160.314V229.935H413.939V123.893H459.591V229.935ZM375.19 121.571V76.8262H411.61V121.571H375.19ZM413.939 121.571V76.8262H414.853C420.728 76.8266 426.546 77.9842 431.975 80.233C437.403 82.4819 442.335 85.7778 446.489 89.9327C450.643 94.0876 453.939 99.0201 456.187 104.449C458.435 109.877 459.592 115.695 459.591 121.571H413.939Z" fill="black"/>
<path d="M519.887 84.0606C511.278 67.2684 497.941 53.1397 482.255 42.757C466.518 32.3886 448.461 26.0744 429.692 24.3771C427.232 24.1535 424.765 24.0226 422.293 23.9842C419.372 23.9405 375.427 36.616 360.706 46.9664C345.993 57.1906 333.89 70.7305 325.373 86.4934C316.871 102.343 312.689 120.15 313.247 138.127C313.976 156.212 319.017 173.861 327.95 189.603C336.761 205.293 349.272 218.594 364.394 228.348C379.732 238.135 395.139 264.084 413.249 265C431.494 265.923 452.303 241.445 468.944 234.013C485.585 226.519 499.971 214.794 510.669 200.008C521.065 185.517 527.79 168.721 530.268 151.06C532.842 132.977 531.642 114.327 525.467 97.0439C523.883 92.6029 522.019 88.2664 519.887 84.0606C518.107 80.5554 512.891 79.2647 509.625 81.37C507.943 82.4059 506.725 84.0504 506.224 85.9614C505.723 87.8725 505.977 89.9032 506.935 91.6314C507.98 93.6899 508.952 95.7824 509.85 97.909L509.094 96.1173C512.494 104.292 514.806 112.879 515.971 121.656L515.703 119.662C516.941 129.184 516.919 138.828 515.636 148.344L515.904 146.35C514.608 155.866 512.068 165.17 508.35 174.025L509.106 172.233C507.193 176.751 504.964 181.128 502.434 185.331C501.152 187.455 499.792 189.529 498.354 191.553C497.722 192.441 497.071 193.314 496.415 194.184C495.558 195.32 497.582 192.701 496.697 193.815C496.546 194.004 496.397 194.195 496.245 194.384C495.791 194.952 495.33 195.514 494.863 196.072C491.745 199.791 488.343 203.263 484.687 206.455C483.776 207.25 482.85 208.027 481.909 208.786C481.44 209.165 480.977 209.559 480.488 209.911C480.507 209.898 482.068 208.712 481.144 209.4C480.853 209.617 480.565 209.836 480.274 210.052C478.334 211.489 476.343 212.853 474.3 214.144C469.596 217.107 464.662 219.687 459.544 221.857L461.336 221.101C452.508 224.817 443.229 227.356 433.739 228.653L435.733 228.385C426.248 229.667 416.634 229.684 407.144 228.435L409.138 228.703C400.513 227.545 392.076 225.264 384.042 221.919L385.834 222.675C381.181 220.71 376.694 218.372 372.418 215.684C370.302 214.35 368.241 212.935 366.234 211.436C365.948 211.223 365.664 211.006 365.379 210.791C364.464 210.1 366.037 211.301 366.05 211.309C365.517 210.927 365.005 210.518 364.515 210.084C363.546 209.295 362.592 208.488 361.653 207.662C357.897 204.355 354.39 200.775 351.16 196.953C350.351 195.997 349.56 195.027 348.786 194.042C348.451 193.616 347.839 192.752 349.19 194.571C349.012 194.332 348.828 194.097 348.649 193.859C348.218 193.287 347.792 192.711 347.373 192.131C345.904 190.099 344.508 188.017 343.185 185.885C340.195 181.059 337.585 176.008 335.38 170.777L336.136 172.568C332.527 163.982 330.059 154.959 328.795 145.731L329.063 147.725C327.923 139.219 327.907 130.6 329.015 122.089L328.747 124.083C329.883 115.842 332.1 107.786 335.341 100.124L334.585 101.916C336.625 97.1191 339.03 92.4866 341.781 88.0593C343.158 85.8438 344.617 83.6823 346.158 81.5747C346.508 81.0958 346.863 80.6198 347.221 80.1468C347.545 79.7189 348.436 78.6535 346.915 80.5352C347.064 80.3508 347.208 80.1609 347.355 79.9748C348.201 78.9031 349.067 77.8481 349.954 76.8099C353.312 72.8791 356.949 69.196 360.838 65.7891C361.82 64.9279 362.819 64.0849 363.832 63.26C364.293 62.8852 364.757 62.5143 365.223 62.1472C365.41 62.0004 365.599 61.8564 365.785 61.7086C363.787 63.2981 365.23 62.1412 365.683 61.8015C367.773 60.2359 369.918 58.7488 372.119 57.3401C377.011 54.2112 382.158 51.499 387.505 49.2322L385.714 49.9883C393.474 46.7299 427.854 39.0391 434.108 39.8786L432.114 39.6106C441.305 40.8937 450.288 43.3756 458.834 46.993L457.042 46.237C461.373 48.0758 465.581 50.1899 469.642 52.5662C471.671 53.7555 473.66 55.0097 475.61 56.3287C476.532 56.9531 477.445 57.5914 478.348 58.2437C478.799 58.5698 479.248 58.8994 479.694 59.2325C479.942 59.4175 480.188 59.6051 480.435 59.7906C481.475 60.5696 479.004 58.6624 480.093 59.5239C483.739 62.3885 487.202 65.479 490.461 68.7772C492.062 70.4072 493.607 72.0889 495.098 73.8223C495.862 74.7118 496.611 75.6143 497.344 76.5299C497.709 76.9848 498.949 78.6309 497.429 76.6145C497.8 77.1073 498.176 77.5968 498.543 78.0933C501.703 82.3708 504.51 86.8984 506.935 91.6314C508.728 95.1291 513.922 96.4333 517.196 94.322C518.879 93.2866 520.098 91.6421 520.599 89.7308C521.1 87.8195 520.845 85.7885 519.887 84.0606Z" fill="#634BFB"/>
<path d="M95.2488 144C101.324 144 106.249 139.075 106.249 133C106.249 126.925 101.324 122 95.2488 122C89.1736 122 84.2488 126.925 84.2488 133C84.2488 139.075 89.1736 144 95.2488 144Z" fill="#634BFB"/>
<path d="M227.249 264C233.324 264 238.249 259.075 238.249 253C238.249 246.925 233.324 242 227.249 242C221.174 242 216.249 246.925 216.249 253C216.249 259.075 221.174 264 227.249 264Z" fill="#634BFB"/>
<path d="M728.249 264C734.324 264 739.249 259.075 739.249 253C739.249 246.925 734.324 242 728.249 242C722.174 242 717.249 246.925 717.249 253C717.249 259.075 722.174 264 728.249 264Z" fill="#634BFB"/>
<path d="M755.249 124C761.324 124 766.249 119.075 766.249 113C766.249 106.925 761.324 102 755.249 102C749.174 102 744.249 106.925 744.249 113C744.249 119.075 749.174 124 755.249 124Z" fill="#634BFB"/>
<path d="M723.249 22C729.324 22 734.249 17.0751 734.249 11C734.249 4.92487 729.324 0 723.249 0C717.174 0 712.249 4.92487 712.249 11C712.249 17.0751 717.174 22 723.249 22Z" fill="#634BFB"/>
<path d="M264.249 113C264.242 115.81 263.156 118.509 261.214 120.54C259.272 122.571 256.624 123.778 253.817 123.911C251.011 124.044 248.26 123.092 246.136 121.254C244.011 119.415 242.674 116.83 242.402 114.034C242.13 111.237 242.944 108.443 244.675 106.23C246.406 104.016 248.921 102.553 251.701 102.143C254.481 101.732 257.312 102.406 259.608 104.025C261.905 105.644 263.491 108.084 264.039 110.84C264.18 111.551 264.25 112.275 264.249 113Z" fill="#634BFB"/>
<path d="M484.249 54C490.324 54 495.249 49.0751 495.249 43C495.249 36.9249 490.324 32 484.249 32C478.174 32 473.249 36.9249 473.249 43C473.249 49.0751 478.174 54 484.249 54Z" fill="#634BFB"/>
<path d="M375.249 42.9999C375.242 45.8097 374.156 48.5094 372.214 50.5404C370.272 52.5714 367.624 53.7781 364.817 53.911C362.011 54.0438 359.26 53.0925 357.136 51.2539C355.011 49.4154 353.674 46.8303 353.402 44.0337C353.13 41.2371 353.944 38.4429 355.675 36.2295C357.406 34.0161 359.921 32.5529 362.701 32.1426C365.481 31.7322 368.312 32.4063 370.608 34.0252C372.905 35.6441 374.491 38.084 375.039 40.8399C375.18 41.5512 375.25 42.2748 375.249 42.9999Z" fill="#634BFB"/>
<path d="M233.249 10.9999C233.242 13.8097 232.156 16.5094 230.214 18.5404C228.272 20.5714 225.624 21.7781 222.817 21.911C220.011 22.0438 217.26 21.0925 215.136 19.2539C213.011 17.4154 211.674 14.8303 211.402 12.0337C211.13 9.23707 211.944 6.44293 213.675 4.22953C215.406 2.01612 217.921 0.55286 220.701 0.142551C223.481 -0.267758 226.312 0.406292 228.608 2.02521C230.905 3.64413 232.491 6.08399 233.039 8.83991C233.18 9.55122 233.25 10.2747 233.249 10.9999Z" fill="#634BFB"/>
<path d="M599.249 148C605.324 148 610.249 143.075 610.249 137C610.249 130.925 605.324 126 599.249 126C593.174 126 588.249 130.925 588.249 137C588.249 143.075 593.174 148 599.249 148Z" fill="#634BFB"/>
<path d="M426.249 48C435.085 48 442.249 40.8366 442.249 32C442.249 23.1634 435.085 16 426.249 16C417.412 16 410.249 23.1634 410.249 32C410.249 40.8366 417.412 48 426.249 48Z" fill="#634BFB"/>
<path d="M858.941 264.841L1.19067 265.148C1.03431 265.148 0.879476 265.117 0.735016 265.057C0.590556 264.997 0.459305 264.91 0.34874 264.799C0.238175 264.689 0.150459 264.557 0.0906219 264.413C0.0307847 264.268 0 264.114 0 263.957C0 263.801 0.0307847 263.646 0.0906219 263.502C0.150459 263.357 0.238175 263.226 0.34874 263.115C0.459305 263.005 0.590556 262.917 0.735016 262.857C0.879476 262.797 1.03431 262.767 1.19067 262.767L858.941 262.459C859.256 262.46 859.558 262.586 859.78 262.809C860.003 263.032 860.128 263.335 860.128 263.65C860.128 263.965 860.003 264.267 859.78 264.491C859.558 264.714 859.256 264.84 858.941 264.841Z" fill="#CACACA"/>
</g>
<defs>
<clipPath id="clip0_103_8">
<rect width="861" height="266" fill="white"/>
</clipPath>
</defs>
</svg>
